#!OML:ASF H:\Terrain\Patient Classification 1\Walking\liu\liu.ASF
:FULLY-SPECIFIED
:DEGREES
159
root 8.84946 17.0804 0.170334 5.44166 3.23371 -3.07149
lowerback -5.26194 -0.76177 -0.780277
upperback -1.36259 -1.0352 3.35639
thorax 1.62385 -0.521423 3.83197
lowerneck -22.4482 -4.1698 -12.3037
upperneck 26.1932 -5.35372 12.6587
head 13.2536 -1.91781 6.15894
rclavicle -3.29237e-016 2.78299e-014
rhumerus -35.7185 0.643081 -79.9985
rradius 20.0229
rwrist -2.40119
rhand -26.9531 -27.5143
rfingers 7.12502
rthumb -0.374782 -57.4937
lclavicle -3.29237e-016 2.78299e-014
lhumerus -27.7465 -13.4815 94.4624
lradius 26.0087
lwrist -0.0679196
lhand -11.3378 -21.5008
lfingers 7.12502
lthumb 14.6951 7.95842
rfemur -12.7411 -3.08237 29.6692
rtibia 23.5897
rfoot -11.7437 6.91057
rtoes -6.17469
lfemur -24.5745 10.5165 -17.6298
ltibia 67.6814
lfoot -9.08163 13.8599
ltoes -8.52923
160
root 8.84464 17.0567 0.336707 5.67304 2.90181 -3.25454
lowerback -5.28334 -0.549114 -0.555012
upperback -1.44726 -0.761065 3.33745
thorax 1.52554 -0.381607 3.7032
lowerneck -22.1276 -4.20002 -12.4302
upperneck 25.8492 -5.39397 12.7773
head 13.061 -1.9395 6.19956
rclavicle 2.70223e-015 -2.3059e-014
rhumerus -35.1476 2.41871 -80.9686
rradius 20.9231
rwrist -3.10572
rhand -26.3053 -28.9014
rfingers 7.12502
rthumb 0.250905 -58.881
lclavicle 2.70223e-015 -2.3059e-014
lhumerus -28.6056 -12.5492 94.1448
lradius 25.3161
lwrist -0.687538
lhand -10.7177 -21.271
lfingers 7.12502
lthumb 15.2924 8.14362
rfemur -12.3612 -2.98455 30.0041
rtibia 23.4557
rfoot -12.2543 6.61913
rtoes -9.58807
lfemur -26.3774 10.701 -17.9485
ltibia 67.4326
lfoot -9.54821 13.7762
ltoes -6.66086
161
root 8.84813 17.0555 0.517472 5.86169 2.48659 -3.36378
lowerback -5.31282 -0.377636 -0.389265
upperback -1.4646 -0.540739 3.31757
thorax 1.50731 -0.270641 3.60321
lowerneck -22.4749 -4.17645 -12.1916
upperneck 25.9778 -5.31693 12.4538
head 13.1535 -1.91349 6.04706
rclavicle 2.9445e-015 -1.74931e-014
rhumerus -34.5447 4.62002 -82.0334
rradius 21.7489
rwrist -3.85622
rhand -27.5346 -25.3723
rfingers 7.12502
rthumb -0.936402 -55.35
lclavicle 2.9445e-015 -1.74931e-014
lhumerus -29.3969 -11.2747 93.66
lradius 24.5237
lwrist -1.36337
lhand -9.07174 -20.478
lfingers 7.12502
lthumb 16.8774 8.80857
rfemur -11.915 -3.05211 30.1781
rtibia 23.3806
rfoot -12.6502 6.49127
rtoes -11.7471
lfemur -28.2547 10.712 -18.2712
ltibia 66.909
lfoot -9.09152 13.8139
ltoes -5.02969
162
root 8.85501 17.047 0.709983 5.87064 2.02945 -3.51058
lowerback -5.30333 -0.208326 -0.184404
upperback -1.40378 -0.327646 3.32752
thorax 1.54956 -0.164528 3.51172
lowerneck -22.8445 -4.14836 -12.0887
upperneck 26.1212 -5.23623 12.3051
head 13.2675 -1.87737 5.99345
rclavicle -1.1865e-015 1.19271e-015
rhumerus -33.9698 7.24725 -83.2023
rradius 22.6593
rwrist -5.8122
rhand -29.0419 -22.5709
rfingers 7.12502
rthumb -2.39219 -52.5372
lclavicle -1.1865e-015 1.19271e-015
lhumerus -30.1829 -9.82204 93.106
lradius 23.5366
lwrist -2.52278
lhand -6.93779 -19.4426
lfingers 7.12502
lthumb 18.9306 9.65616
rfemur -11.1636 -3.15661 30.3273
rtibia 23.3455
rfoot -13.3078 6.73065
rtoes -12.3055
lfemur -29.5597 10.8592 -18.5324
ltibia 66.1111
lfoot -9.6549 13.6752
ltoes -9.06734
163
root 8.85848 17.0366 0.895731 5.87718 1.71923 -3.83831
lowerback -5.20586 -0.0289076 0.246655
upperback -1.46199 -0.107982 3.35629
thorax 1.42088 -0.0522834 3.31168
lowerneck -22.5251 -4.17897 -12.3102
upperneck 25.8735 -5.28874 12.5473
head 13.1238 -1.89877 6.10653
rclavicle -7.42958e-015 5.64548e-014
rhumerus -33.8204 9.34735 -84.0692
rradius 24.2909
rwrist -7.53065
rhand -28.9331 -24.0359
rfingers 7.12502
rthumb -2.28708 -54.0034
lclavicle -7.42958e-015 5.64548e-014
lhumerus -31.3087 -8.71001 92.5995
lradius 22.757
lwrist -3.93673
lhand -6.31516 -19.265
lfingers 7.12502
lthumb 19.5294 9.77422
rfemur -10.3479 -3.22041 30.7069
rtibia 23.2086
rfoot -14.193 6.9931
rtoes -11.7705
lfemur -30.8297 10.8765 -18.5539
ltibia 65.0572
lfoot -11.3108 13.5155
ltoes -10.6098
164
root 8.86093 17.0276 1.06993 5.98011 1.46879 -4.08416
lowerback -4.98598 0.210301 0.623758
upperback -1.68253 0.204794 3.34369
thorax 1.05524 0.107954 3.10256
lowerneck -22.1045 -4.298 -12.6036
upperneck 25.7347 -5.45291 12.7466
head 13.0241 -1.9865 6.19996
rclavicle 1.72384e-015 4.85035e-014
rhumerus -33.8974 10.7338 -84.5627
rradius 25.9764
rwrist -8.60136
rhand -28.2216 -25.9802
rfingers 7.12502
rthumb -1.59991 -55.954
lclavicle 1.72384e-015 4.85035e-014
lhumerus -32.7295 -8.41124 92.4229
lradius 22.1124
lwrist -4.78682
lhand -7.33127 -19.838
lfingers 7.12502
lthumb 18.5522 9.29734
rfemur -9.71447 -3.2775 30.9985
rtibia 23.0071
rfoot -14.6082 7.15531
rtoes -11.0312
lfemur -32.2236 10.7794 -18.633
ltibia 63.6833
lfoot -12.0246 13.578
ltoes -6.22844
165
root 8.86965 17.0229 1.26155 6.07118 1.05311 -4.03716
lowerback -4.98839 0.425617 0.698113
upperback -1.70093 0.490056 3.25059
thorax 1.02504 0.25067 2.98054
lowerneck -22.2279 -4.36576 -12.6467
upperneck 25.7337 -5.51166 12.7208
head 13.0596 -2.01645 6.18737
rclavicle 1.22563e-014 1.03368e-014
rhumerus -33.5488 12.4718 -85.1609
rradius 27.2789
rwrist -10.1204
rhand -28.1782 -26.7601
rfingers 7.12502
rthumb -1.55798 -56.7341
lclavicle 1.22563e-014 1.03368e-014
lhumerus -33.7281 -7.99354 92.1218
lradius 21.2023
lwrist -5.28359
lhand -8.54739 -20.7893
lfingers 7.12502
lthumb 17.3821 8.45352
rfemur -8.84011 -3.49347 30.8567
rtibia 22.5762
rfoot -14.3045 7.47909
rtoes -9.93813
lfemur -33.24 10.7044 -19.0198
ltibia 61.9882
lfoot -11.9688 13.5233
ltoes -3.59202
166
root 8.88601 17.0253 1.46953 6.01035 0.557499 -3.86926
lowerback -5.07885 0.544797 0.614649
upperback -1.52384 0.645469 3.20541
thorax 1.24993 0.326255 2.99254
lowerneck -22.4016 -4.29925 -12.5971
upperneck 25.5065 -5.34766 12.5841
head 12.9693 -1.94936 6.13908
rclavicle 2.41026e-015 1.55052e-014
rhumerus -32.7581 14.4147 -85.6269
rradius 28.3747
rwrist -11.4528
rhand -27.8658 -28.2881
rfingers 7.12502
rthumb -1.25626 -58.2641
lclavicle 2.41026e-015 1.55052e-014
lhumerus -34.5396 -6.62378 91.4349
lradius 20.4489
lwrist -6.162
lhand -8.85778 -21.6353
lfingers 7.12502
lthumb 17.0833 7.63365
rfemur -7.55921 -3.9552 30.4533
rtibia 21.9695
rfoot -13.8409 8.15841
rtoes -8.52194
lfemur -33.7889 10.7064 -19.5477
ltibia 60.0801
lfoot -12.263 13.1912
ltoes -5.43505
167
root 8.89223 17.0227 1.65276 6.06971 0.103388 -4.17191
lowerback -5.05102 0.722756 0.944306
upperback -1.46149 0.863484 3.28389
thorax 1.29182 0.435008 2.9013
lowerneck -22.2264 -4.24548 -12.6918
upperneck 25.0974 -5.25969 12.7173
head 12.7614 -1.90422 6.20106
rclavicle -1.56729e-014 -9.14409e-015
rhumerus -32.0529 15.7685 -85.7725
rradius 29.5286
rwrist -12.1787
rhand -27.1438 -29.9944
rfingers 7.12502
rthumb -0.559017 -59.9734
lclavicle -1.56729e-014 -9.14409e-015
lhumerus -35.4474 -4.91738 90.4878
lradius 19.7837
lwrist -7.68231
lhand -8.81365 -22.4448
lfingers 7.12502
lthumb 17.1258 6.8204
rfemur -6.49941 -3.7954 30.7072
rtibia 21.2415
rfoot -13.6887 8.20047
rtoes -9.05632
lfemur -34.7407 10.766 -19.4926
ltibia 58.1029
lfoot -13.086 12.8081
ltoes -6.10878
